<?xml version="1.0" standalone="no"?>
<!DOCTYPE svg PUBLIC "-//W3C//DTD SVG 20010904//EN"
 "http://www.w3.org/TR/2001/REC-SVG-20010904/DTD/svg10.dtd">
<svg version="1.0" xmlns="http://www.w3.org/2000/svg"
 width="256.000000pt" height="256.000000pt" viewBox="0 0 256.000000 256.000000"
 preserveAspectRatio="xMidYMid meet">
<metadata>
Created by potrace 1.16, written by Peter Selinger 2001-2019
</metadata>
<g transform="translate(0.000000,256.000000) scale(0.100000,-0.100000)"
fill="yellow" stroke="none">
<path d="M220 1360 c0 -484 3 -880 6 -880 3 0 13 8 22 17 12 12 13 18 4 21 -9
3 -12 186 -12 853 l0 849 789 0 c620 0 790 -3 793 -12 3 -9 9 -8 21 4 9 9 17
19 17 22 0 3 -369 6 -820 6 l-820 0 0 -880z"/>
<path d="M2213 1985 c-15 -17 -17 -45 -3 -45 7 0 10 -287 10 -840 l0 -840
-790 0 c-434 0 -790 3 -790 6 0 3 14 19 31 35 18 16 29 32 26 35 -5 6 -97 -80
-97 -91 0 -3 369 -5 820 -5 l820 0 0 880 c0 484 -3 880 -7 880 -5 -1 -14 -7
-20 -15z"/>
<path d="M620 1390 c0 -307 3 -470 10 -470 7 0 10 160 10 460 l0 460 430 0
c280 0 430 3 430 10 0 7 -153 10 -440 10 l-440 0 0 -470z"/>
<path d="M880 1630 c0 -5 9 -10 20 -10 11 0 20 -4 20 -10 0 -5 14 -10 30 -10
23 0 30 -4 30 -20 0 -11 5 -20 10 -20 6 0 10 -73 10 -200 0 -127 -4 -200 -10
-200 -6 0 -10 -40 -10 -100 l0 -100 -30 0 c-16 0 -30 -4 -30 -10 0 -5 -9 -10
-20 -10 -11 0 -20 -4 -20 -10 0 -6 63 -10 170 -10 107 0 170 4 170 10 0 6 -18
10 -40 10 -22 0 -40 5 -40 10 0 6 -13 10 -30 10 l-30 0 0 150 c0 93 4 150 10
150 6 0 10 -4 10 -10 0 -6 37 -10 90 -10 53 0 90 4 90 10 0 6 11 10 25 10 35
0 135 100 135 135 0 14 5 25 10 25 6 0 10 18 10 40 0 22 -4 40 -10 40 -5 0
-10 11 -10 25 0 34 -61 95 -95 95 -14 0 -25 5 -25 10 0 6 -80 10 -220 10 -140
0 -220 -4 -220 -10z m380 -40 c0 -5 7 -10 15 -10 20 0 65 -45 65 -65 0 -8 5
-15 10 -15 6 0 10 -22 10 -50 0 -27 -4 -50 -10 -50 -5 0 -10 -9 -10 -20 0 -11
-4 -20 -10 -20 -5 0 -10 -7 -10 -16 0 -20 -24 -44 -44 -44 -9 0 -16 -4 -16
-10 0 -16 -149 -13 -166 4 -11 11 -14 47 -14 160 l0 146 90 0 c53 0 90 -4 90
-10z"/>
<path d="M1820 1100 l0 -460 -425 0 -425 0 -56 -56 c-31 -30 -53 -58 -50 -61
3 -3 27 18 55 46 l50 51 435 0 436 0 0 470 c0 307 -3 470 -10 470 -7 0 -10
-160 -10 -460z"/>
</g>
</svg>
